<?xml version="1.0" encoding="UTF-8" standalone="no"?>
<!DOCTYPE svg PUBLIC "-//W3C//DTD SVG 1.1//EN" "http://www.w3.org/Graphics/SVG/1.1/DTD/svg11.dtd">
<svg width="100%" height="100%" viewBox="0 0 190 204" version="1.1" xmlns="http://www.w3.org/2000/svg" xmlns:xlink="http://www.w3.org/1999/xlink" xml:space="preserve" xmlns:serif="http://www.serif.com/" style="fill-rule:evenodd;clip-rule:evenodd;stroke-miterlimit:10;">
    <g transform="matrix(1.25,0,0,-1.25,78.3563,23.8475)">
        <g id="variante2">
            <g id="g12">
                <path id="path22" d="M6.378,0C6.378,3.523 3.523,6.378 0,6.378C-3.523,6.378 -6.378,3.523 -6.378,0C-6.378,-3.523 -3.523,-6.378 0,-6.378C3.523,-6.378 6.378,-3.523 6.378,0Z" style="fill:rgb(217,94,64);fill-rule:nonzero;stroke:black;stroke-width:0.6px;"/>
                <g transform="matrix(1,0,0,-1,-37.616,-43.447)">
                    <text x="0px" y="0px" style="font-family:'Roboto-Regular', 'Roboto';font-size:8.966px;">Biting</text>
                </g>
                <path id="path48" d="M24.325,-37.789C24.325,-34.267 21.469,-31.411 17.947,-31.411C14.424,-31.411 11.569,-34.267 11.569,-37.789C11.569,-41.312 14.424,-44.167 17.947,-44.167C21.469,-44.167 24.325,-41.312 24.325,-37.789Z" style="fill:rgb(217,94,64);fill-rule:nonzero;stroke:black;stroke-width:0.6px;"/>
                <path id="path60" d="M6.378,-75.579C6.378,-72.056 3.523,-69.201 0,-69.201C-3.523,-69.201 -6.378,-72.056 -6.378,-75.579C-6.378,-79.101 -3.523,-81.957 0,-81.957C3.523,-81.957 6.378,-79.101 6.378,-75.579Z" style="fill:rgb(217,94,64);fill-rule:nonzero;stroke:black;stroke-width:0.6px;"/>
                <g transform="matrix(1,0,0,-1,41.7204,-118.086)">
                    <text x="0px" y="0px" style="font-family:'Roboto-Regular', 'Roboto';font-size:8.966px;">Non-biting</text>
                </g>
                <g transform="matrix(1,0,0,-1,-40.816,-119.025)">
                    <text x="0px" y="0px" style="font-family:'Roboto-Regular', 'Roboto';font-size:8.966px;">Non-biting</text>
                </g>
                <g transform="matrix(1,0,0,-1,12.844,-119.025)">
                    <text x="0px" y="0px" style="font-family:'Roboto-Regular', 'Roboto';font-size:8.966px;">Biting</text>
                </g>
                <g transform="matrix(1,0,0,-1,-49.402,-78.04)">
                    <text x="0px" y="0px" style="font-family:'Roboto-Regular', 'Roboto';font-size:6.974px;">Accessory?</text>
                </g>
                <g transform="matrix(1,0,0,-1,29.66,-36.458)">
                    <text x="0px" y="0px" style="font-family:'Roboto-Regular', 'Roboto';font-size:6.974px;">At least 1</text>
                </g>
                <g transform="matrix(1,0,0,-1,29.786,-42.68)">
                    <text x="0px" y="0px" style="font-family:'Roboto-Regular', 'Roboto';font-size:6.974px;">eye open?</text>
                </g>
                <g transform="matrix(1,0,0,-1,-34.867,0.496)">
                    <text x="0px" y="0px" style="font-family:'Roboto-Regular', 'Roboto';font-size:6.974px;">Open</text>
                </g>
                <g transform="matrix(1,0,0,-1,-34.867,-5.726)">
                    <text x="0px" y="0px" style="font-family:'Roboto-Regular', 'Roboto';font-size:6.974px;">mouth?</text>
                </g>
                <path id="path176" d="M-3.766,-5.547L-21.158,-31.164" style="fill:none;fill-rule:nonzero;stroke:rgb(51,51,51);stroke-width:0.6px;"/>
                <g id="path184" transform="matrix(-0.56403,-0.83076,0.83076,-0.56403,-21.1579,-31.1645)">
                    <path d="M2.291,0L-1.375,1.833L0,0L-1.375,-1.833" style="fill:rgb(51,51,51);fill-rule:nonzero;"/>
                </g>
                <g transform="matrix(1,0,0,-1,-30.163,-21.769)">
                    <g>
                        <text x="0px" y="0px" style="font-family:'Roboto-Regular', 'Roboto';font-size:6.974px;">Y</text>
                        <g transform="matrix(1,0,0,1,3.967,0)">
                            <text x="0px" y="0px" style="font-family:'Roboto-Regular', 'Roboto';font-size:6.974px;">es!</text>
                        </g>
                    </g>
                </g>
                <path id="path206" d="M2.87,-6.043L14.092,-29.673" style="fill:none;fill-rule:nonzero;stroke:rgb(51,51,51);stroke-width:0.6px;"/>
                <g id="path214" transform="matrix(0.4298,-0.90501,0.90501,0.4298,14.0922,-29.6729)">
                    <path d="M2.291,0L-1.375,1.833L0,0L-1.375,-1.833" style="fill:rgb(51,51,51);fill-rule:nonzero;"/>
                </g>
                <g transform="matrix(1,0,0,-1,12.593,-21.356)">
                    <text x="0px" y="0px" style="font-family:'Roboto-Regular', 'Roboto';font-size:6.974px;">No!</text>
                </g>
                <path id="path236" d="M15.077,-43.832L3.854,-67.462" style="fill:none;fill-rule:nonzero;stroke:rgb(51,51,51);stroke-width:0.6px;"/>
                <g id="path244" transform="matrix(-0.4298,-0.90501,0.90501,-0.4298,3.8544,-67.4622)">
                    <path d="M2.291,0L-1.375,1.833L0,0L-1.375,-1.833" style="fill:rgb(51,51,51);fill-rule:nonzero;"/>
                </g>
                <g transform="matrix(1,0,0,-1,-8.882,-59.145)">
                    <g>
                        <text x="0px" y="0px" style="font-family:'Roboto-Regular', 'Roboto';font-size:6.974px;">Y</text>
                        <g transform="matrix(1,0,0,1,3.967,0)">
                            <text x="0px" y="0px" style="font-family:'Roboto-Regular', 'Roboto';font-size:6.974px;">es!</text>
                        </g>
                    </g>
                </g>
                <path id="path266" d="M21.259,-43.59L56.741,-105.718" style="fill:none;fill-rule:nonzero;stroke:rgb(51,51,51);stroke-width:0.6px;"/>
                <g id="path274" transform="matrix(0.49619,-0.86877,0.86877,0.49619,56.7407,-105.718)">
                    <path d="M2.291,0L-1.375,1.833L0,0L-1.375,-1.833" style="fill:rgb(51,51,51);fill-rule:nonzero;"/>
                </g>
                <g transform="matrix(1,0,0,-1,43.187,-78.11)">
                    <text x="0px" y="0px" style="font-family:'Roboto-Regular', 'Roboto';font-size:6.974px;">No!</text>
                </g>
                <path id="path296" d="M-3.435,-81.329L-18.572,-106.673" style="fill:none;fill-rule:nonzero;stroke:rgb(51,51,51);stroke-width:0.6px;"/>
                <g id="path304" transform="matrix(-0.5144,-0.86127,0.86127,-0.5144,-18.5721,-106.673)">
                    <path d="M2.291,0L-1.375,1.833L0,0L-1.375,-1.833" style="fill:rgb(51,51,51);fill-rule:nonzero;"/>
                </g>
                <g transform="matrix(1,0,0,-1,-26.248,-97.449)">
                    <g>
                        <text x="0px" y="0px" style="font-family:'Roboto-Regular', 'Roboto';font-size:6.974px;">Y</text>
                        <g transform="matrix(1,0,0,1,3.967,0)">
                            <text x="0px" y="0px" style="font-family:'Roboto-Regular', 'Roboto';font-size:6.974px;">es!</text>
                        </g>
                    </g>
                </g>
                <path id="path326" d="M3.766,-81.126L21.158,-106.743" style="fill:none;fill-rule:nonzero;stroke:rgb(51,51,51);stroke-width:0.6px;"/>
                <g id="path334" transform="matrix(0.56403,-0.83076,0.83076,0.56403,21.1579,-106.743)">
                    <path d="M2.291,0L-1.375,1.833L0,0L-1.375,-1.833" style="fill:rgb(51,51,51);fill-rule:nonzero;"/>
                </g>
                <g transform="matrix(1,0,0,-1,16.727,-97.347)">
                    <text x="0px" y="0px" style="font-family:'Roboto-Regular', 'Roboto';font-size:6.974px;">No!</text>
                </g>
            </g>
        </g>
    </g>
</svg>
